<?xml version="1.0" standalone="no"?>
<!DOCTYPE svg PUBLIC "-//W3C//DTD SVG 20010904//EN"
 "http://www.w3.org/TR/2001/REC-SVG-20010904/DTD/svg10.dtd">
<svg version="1.0" xmlns="http://www.w3.org/2000/svg"
 width="762.000000pt" height="762.000000pt" viewBox="0 0 762.000000 762.000000"
 preserveAspectRatio="xMidYMid meet">
<metadata>
Created by potrace 1.14, written by Peter Selinger 2001-2017
</metadata>
<g transform="translate(0.000000,762.000000) scale(0.100000,-0.100000)"
fill="#000000" stroke="none">
<path d="M3647 7503 c-5 -4 -24 -8 -92 -17 -22 -3 -51 -8 -65 -11 -14 -4 -32
-8 -40 -9 -44 -7 -191 -52 -235 -71 -16 -7 -50 -21 -75 -31 -92 -37 -291 -155
-369 -219 -169 -141 -302 -294 -401 -462 -42 -70 -103 -188 -105 -203 -1 -3
-9 -23 -19 -45 -9 -22 -20 -52 -23 -67 -3 -16 -10 -28 -15 -28 -5 0 -7 -4 -4
-9 3 -5 -1 -27 -9 -50 -8 -23 -12 -41 -9 -41 2 0 0 -8 -5 -17 -5 -10 -12 -34
-15 -53 -3 -19 -8 -44 -10 -56 -15 -72 -20 -147 -21 -284 0 -136 10 -294 21
-311 1 -3 10 -39 19 -80 23 -106 22 -101 73 -239 24 -66 99 -227 114 -245 5
-5 27 -39 49 -74 142 -224 387 -446 625 -566 32 -16 62 -34 66 -40 4 -5 8 -6
8 -2 0 4 10 2 23 -5 12 -7 24 -13 27 -13 3 -1 19 -7 35 -14 41 -16 60 -22 63
-22 1 1 19 -6 39 -14 38 -16 166 -50 218 -59 17 -2 30 -5 30 -6 0 -5 106 -12
195 -14 l104 -1 2 175 c2 190 5 229 30 370 4 19 8 44 9 56 7 57 65 247 100
329 7 17 19 47 26 68 7 20 17 37 21 37 4 0 7 3 6 8 -4 14 118 241 155 287 4 6
25 35 47 65 52 73 47 66 110 140 54 65 141 154 216 220 59 54 201 160 213 160
6 0 11 4 11 8 0 15 272 161 314 169 11 2 26 9 34 15 8 7 19 13 26 15 21 5 261
86 265 89 11 10 -92 263 -116 288 -4 4 -8 11 -8 15 0 30 -163 248 -264 355
-260 271 -655 469 -996 500 -11 1 -24 4 -30 7 -11 7 -362 9 -368 2z"/>
<path d="M5808 5975 c-2 -1 -30 -5 -63 -9 -62 -6 -102 -12 -145 -22 -14 -3
-36 -8 -50 -10 -14 -3 -50 -12 -80 -21 -30 -9 -60 -17 -66 -19 -31 -6 -228
-90 -240 -102 -8 -7 -14 -11 -14 -8 0 3 -23 -8 -50 -24 -28 -17 -55 -30 -60
-30 -6 0 -10 -4 -10 -9 0 -5 -9 -13 -20 -16 -11 -3 -26 -12 -32 -19 -7 -6 -34
-26 -59 -44 -66 -45 -91 -66 -188 -162 -105 -104 -121 -122 -196 -231 -70 -99
-68 -97 -129 -216 -43 -84 -123 -305 -132 -363 -2 -14 -6 -36 -9 -50 -3 -14
-8 -43 -11 -65 -3 -22 -10 -60 -14 -85 -5 -25 -7 -124 -5 -220 3 -162 6 -203
20 -263 2 -12 10 -44 16 -72 12 -58 14 -65 22 -85 3 -8 11 -32 17 -53 7 -21
17 -36 24 -34 28 10 243 79 259 83 9 2 26 6 38 9 11 2 28 6 37 9 16 5 42 10
100 21 15 3 36 7 47 10 119 25 470 26 615 1 14 -3 41 -7 60 -10 47 -7 68 -12
115 -25 22 -6 49 -12 60 -14 11 -2 27 -7 35 -10 8 -3 47 -15 85 -27 85 -26
309 -120 313 -132 2 -4 12 -8 22 -8 10 0 20 -3 22 -7 2 -5 19 -17 38 -27 60
-33 204 -129 235 -158 17 -15 33 -28 37 -28 15 0 208 -188 273 -265 43 -52
163 -212 181 -241 8 -14 14 -16 25 -6 8 6 43 35 79 64 55 44 131 118 209 203
10 11 38 47 62 80 24 33 47 62 52 63 4 2 7 7 7 12 0 4 17 37 38 71 41 68 121
230 127 257 4 15 38 122 53 162 10 30 39 166 40 190 0 8 4 29 8 45 10 39 11
353 1 425 -5 44 -22 135 -26 148 -2 5 -3 8 -7 32 -6 38 -65 221 -81 252 -7 15
-13 30 -13 33 2 9 -101 199 -116 216 -8 8 -14 19 -14 23 0 4 -32 50 -71 103
-88 116 -193 224 -328 336 -12 9 -25 17 -30 17 -5 0 -11 4 -13 8 -7 16 -137
95 -243 146 -145 70 -228 99 -410 141 -11 3 -37 7 -58 10 -20 3 -56 7 -80 11
-41 6 -304 13 -309 9z"/>
<path d="M1528 5965 c-2 -1 -28 -5 -58 -8 -98 -11 -257 -49 -350 -84 -8 -3
-19 -7 -25 -8 -5 -2 -44 -19 -86 -39 -42 -20 -79 -36 -82 -36 -14 0 -168 -98
-252 -161 -121 -91 -229 -196 -320 -313 -16 -21 -36 -45 -42 -52 -7 -7 -13
-15 -13 -19 0 -3 -10 -21 -23 -38 -46 -66 -119 -206 -160 -309 -28 -71 -72
-221 -82 -278 -3 -19 -8 -48 -12 -65 -12 -62 -15 -95 -18 -260 -1 -114 2 -198
12 -255 8 -47 16 -96 18 -110 22 -145 134 -421 226 -558 16 -24 29 -45 29 -47
0 -3 6 -13 14 -22 8 -10 38 -47 66 -83 95 -120 223 -243 330 -316 30 -20 57
-40 60 -44 10 -13 277 -154 300 -158 3 0 19 -6 35 -12 17 -7 37 -14 45 -16 8
-2 47 -13 85 -24 147 -43 277 -62 453 -64 144 -3 245 7 407 40 66 13 271 86
346 124 109 54 219 120 219 131 0 5 5 9 11 9 10 0 55 32 124 90 45 38 186 180
223 225 30 37 116 162 158 230 36 60 97 194 109 245 1 3 7 18 13 33 7 16 12
31 12 35 0 4 -53 24 -117 45 -65 20 -130 44 -146 52 -15 8 -29 14 -30 14 -4
-1 -54 20 -107 45 -153 72 -299 166 -449 291 -75 62 -204 199 -294 310 -80
100 -227 341 -252 415 -1 3 -12 28 -24 55 -13 28 -24 57 -26 65 -2 8 -11 33
-21 55 -10 22 -18 45 -20 50 -1 6 -11 42 -22 80 -23 81 -34 124 -37 145 -1 8
-7 47 -13 85 -21 130 -24 169 -26 343 l-1 173 -92 -2 c-51 -1 -94 -3 -95 -4z"/>
<path d="M5097 3494 c-1 -1 -45 -4 -97 -7 -52 -4 -106 -9 -120 -12 -14 -3 -38
-7 -55 -10 -44 -6 -74 -13 -135 -30 -30 -8 -64 -17 -74 -20 -79 -19 -281 -112
-363 -167 -23 -15 -46 -28 -51 -28 -6 0 -12 -4 -14 -8 -1 -4 -20 -21 -40 -36
l-38 -28 40 -48 c22 -26 40 -52 40 -58 0 -6 4 -12 8 -14 17 -6 114 -160 176
-280 35 -68 81 -170 101 -228 21 -58 40 -112 43 -120 3 -8 7 -22 8 -30 1 -8 9
-43 19 -77 41 -156 56 -290 58 -498 0 -126 -6 -236 -18 -305 -2 -14 -7 -43
-10 -65 -4 -22 -8 -44 -9 -50 -2 -5 -7 -28 -11 -50 -5 -22 -10 -42 -10 -45
-18 -76 -69 -226 -106 -308 -15 -34 -25 -62 -23 -62 3 0 -4 -13 -15 -29 -12
-16 -21 -34 -21 -41 0 -6 -9 -23 -20 -37 -11 -14 -20 -32 -20 -39 0 -8 -4 -14
-9 -14 -5 0 -13 -10 -16 -21 -10 -29 -142 -224 -177 -261 -25 -25 -23 -30 20
-58 20 -14 39 -27 42 -31 19 -22 205 -119 305 -159 82 -33 223 -74 295 -86 14
-2 35 -6 46 -9 53 -12 170 -19 294 -19 161 1 241 10 375 39 193 44 467 170
620 287 179 137 377 363 475 543 82 150 169 373 154 396 -3 5 0 9 7 9 7 0 10
3 7 6 -3 3 0 29 7 57 40 156 49 466 19 609 -2 13 -6 34 -8 48 -13 86 -55 228
-102 344 -29 73 -129 260 -167 310 -191 262 -391 434 -652 564 -133 67 -340
137 -435 147 -19 2 -46 6 -60 9 -39 9 -277 25 -283 20z"/>
<path d="M3467 3141 c-21 -36 -126 -179 -165 -224 -59 -70 -221 -226 -287
-278 -73 -57 -155 -114 -240 -167 -54 -33 -278 -141 -305 -146 -3 -1 -9 -4
-15 -7 -11 -7 -132 -47 -161 -54 -10 -2 -44 -11 -74 -20 -30 -9 -66 -18 -80
-21 -146 -28 -197 -35 -256 -38 -22 -1 -44 -4 -50 -7 -11 -5 -225 -2 -309 5
-71 5 -254 34 -266 42 -5 3 -22 7 -38 9 -40 5 -264 75 -275 86 -24 22 -45 8
-60 -38 -18 -59 -33 -117 -41 -162 -3 -19 -7 -37 -9 -40 -2 -3 -8 -42 -12 -86
-16 -166 -6 -426 20 -513 3 -9 7 -30 10 -46 9 -52 58 -221 67 -230 5 -6 9 -16
9 -23 0 -22 96 -215 139 -281 23 -33 41 -65 41 -71 0 -5 3 -11 8 -13 4 -1 27
-30 52 -63 50 -66 191 -210 259 -265 24 -19 50 -41 57 -47 7 -7 15 -13 19 -13
6 0 66 -41 75 -51 10 -12 128 -77 210 -116 123 -59 291 -114 395 -129 17 -3
37 -7 45 -10 34 -12 144 -19 285 -19 166 0 256 10 360 37 22 5 50 12 62 14 41
8 225 73 249 89 13 8 24 13 24 10 0 -12 251 133 303 175 85 68 172 146 217
194 94 100 110 119 110 125 0 3 16 24 35 46 19 22 35 44 35 48 0 5 11 23 25
41 14 18 25 38 25 44 0 6 3 12 8 14 11 5 98 183 128 263 23 63 59 186 70 240
41 206 48 396 20 585 -2 14 -7 45 -10 69 -34 239 -178 550 -360 779 -20 26
-171 177 -201 202 -43 36 -118 90 -125 90 -3 0 -14 -13 -23 -29z"/>
</g>
</svg>
