<?xml version="1.0" encoding="UTF-8"?>
<svg id="Layer_1" data-name="Layer 1" xmlns="http://www.w3.org/2000/svg" viewBox="0 0 380.58 369.93">
  <defs>
    <style>
      .cls-1 {
        fill: #800020;
        stroke-width: 0px;
      }
    </style>
  </defs>
  <path class="cls-1" d="M205.29,217.75c26.15-21.26,73.07-26.1,107.11,4.28,35.53,31.71,38.08,86.06,5.76,120.72-32.5,34.85-82.42,33.68-112.6,10.23,16.08-19.65,24.54-42.26,24.47-67.63-.07-25.37-8.51-48-24.74-67.6Z"/>
  <path class="cls-1" d="M45.19,258.38c23.72,9.46,47.83,10.58,72.16,2.64,24.32-7.94,43.2-22.99,56.93-44.52,28.4,18.63,46.91,62.37,27.94,103.89-19.89,43.55-71.82,62.02-114.54,40.62-43.75-21.91-54.49-70.27-42.49-102.63Z"/>
  <path class="cls-1" d="M345.41,229.71c-13.9-21.56-32.89-36.51-57.23-44.32-24.37-7.82-48.49-6.52-72.19,3-11.03-28.12-4.48-74.81,36.01-99.47,40.74-24.81,93.48-11.2,117.26,30.17,23.34,40.59,8.29,88.36-23.84,110.62Z"/>
  <path class="cls-1" d="M271.45,58.7c-24.8,6.56-44.88,20.02-59.82,40.75-14.96,20.76-21.17,44.11-19.43,69.59-30.16,1.81-72.54-18.83-83.5-64.96C97.67,57.68,126.9,11.72,173.59,1.87c45.81-9.66,86.6,19.39,97.86,56.83Z"/>
  <path class="cls-1" d="M85.85,76.89c-1.75,25.6,4.55,48.93,19.39,69.74,14.86,20.84,34.97,34.21,59.67,40.75-7.97,29.14-41.13,62.66-88.32,58.22C29.09,241.14-5.05,198.71.61,151.33c5.56-46.49,46.17-75.79,85.24-74.43Z"/>
</svg>