<?xml version="1.0" encoding="UTF-8"?>
<svg id="Layer_1" data-name="Layer 1" xmlns="http://www.w3.org/2000/svg" viewBox="0 0 695.01 470.94">
  <defs>
    <style>
      .cls-1 {
        stroke-width: 0px;
      }
    </style>
  </defs>
  <path class="cls-1" d="M695,470.79h-35.97v-1.38c0-24.76,0-49.51,0-74.27,0-2.98-1.09-4.82-3.8-5.72-4.33-1.44-7.9,1.47-8.21,5.23-.05.63-.04,1.28-.04,1.91,0,24.26,0,48.52,0,72.78v1.43h-36.16v-1.37c0-24.72,0-49.44,0-74.16,0-2.85-1.26-4.92-3.94-5.81-4.33-1.45-7.9,1.45-8.22,5.21-.05.63-.04,1.28-.04,1.91,0,24.26,0,48.52,0,72.78v1.43h-36.1v-88.03h1.18c34.98,0,69.95-.02,104.93.03,4.72,0,9.31,1,13.63,2.98,6.72,3.07,10.6,8.4,11.84,15.58.57,3.3.87,6.69.89,10.04.08,19.44.04,38.87.04,58.31v1.13Z"/>
  <path class="cls-1" d="M0,470.83v-88.1c.38,0,.76,0,1.13,0,17.33,0,34.65-.05,51.98.03,5.63.02,11.08,1.15,16.12,3.78,9.58,4.99,14.16,14.11,13.5,24.68-.4,6.54-3.35,11.53-9.07,14.82-.11.07-.22.15-.41.29.29.16.49.29.7.39,8.29,4.01,12,10.4,11.43,19.62-.41,6.65-2.71,12.41-7.83,16.87-4.47,3.89-9.78,5.97-15.53,6.93-2.58.43-5.22.65-7.83.66-17.61.06-35.22.03-52.83.03H0ZM45.58,447.02c0-4.07,0-8.15,0-12.22,0-3.03-2.28-5.24-5.36-5.24-3.08,0-5.39,2.19-5.4,5.2-.02,8.08-.02,16.16.01,24.23,0,.76.13,1.57.42,2.27,1,2.44,3.45,3.64,6.2,3.14,2.27-.41,4.1-2.65,4.12-5.16.03-4.07,0-8.15,0-12.22ZM45.58,406.21s0,0-.01,0c0-4,.03-8.01-.01-12.01-.02-2.24-1.44-4.13-3.5-4.86-2.13-.75-4.59-.1-6.01,1.6-.93,1.12-1.24,2.42-1.24,3.86.02,7.72.04,15.45-.01,23.17-.02,2.4,2.29,5.27,5.44,5.25,2.9-.02,5.4-2.67,5.36-5.22-.06-3.93-.02-7.87-.02-11.8Z"/>
  <path class="cls-1" d="M228.8,470.83c-4.94,0-9.89.29-14.8-.07-7.72-.56-14.37-3.67-19.57-9.55-4.52-5.12-7.16-11.21-8.75-17.75-2.94-12.11-3.29-24.29-.1-36.4,2.14-8.12,6.43-14.85,13.67-19.45,4.98-3.17,10.5-4.58,16.33-4.85,3.15-.14,6.32-.03,9.47-.03,5.64,0,11.29-.17,16.93.04,7.85.3,15,2.62,20.81,8.18,4.75,4.55,7.52,10.24,9.24,16.49,1.77,6.41,2.27,12.97,2.07,19.59-.2,6.94-1.09,13.77-3.36,20.37-2.2,6.39-5.29,12.24-10.57,16.68-5.27,4.43-11.41,6.64-18.29,6.74-4.37.06-8.73.01-13.1.01ZM234.1,426.89c0-10.78.01-21.56-.02-32.34,0-.9-.13-1.87-.51-2.67-1.03-2.22-3.46-3.23-6.03-2.68-2.17.46-4.01,2.7-4.04,5.03-.04,3.9-.01,7.8-.01,11.7,0,17.59,0,35.17-.01,52.76,0,1.65.47,3.08,1.6,4.26,1.45,1.52,3.86,1.99,5.82,1.2,2.03-.81,3.2-2.53,3.2-4.81,0-10.81,0-21.63,0-32.44Z"/>
  <path class="cls-1" d="M508.06,470.83c-4.15,0-8.31.05-12.46,0-10.76-.14-19.12-4.7-24.93-13.75-3.7-5.76-5.68-12.18-6.8-18.87-1.47-8.81-1.61-17.64-.04-26.46,1.33-7.47,4.04-14.31,9.45-19.85,5.26-5.38,11.76-8.23,19.17-8.91,3.77-.35,7.58-.23,11.38-.25,5.82-.04,11.65-.18,17.46.03,7.85.29,15.01,2.6,20.82,8.16,4.78,4.57,7.56,10.29,9.29,16.58,1.7,6.21,2.22,12.55,2.07,18.96-.17,7.12-1.04,14.13-3.36,20.91-2.18,6.36-5.25,12.18-10.47,16.62-5.31,4.51-11.51,6.74-18.47,6.83-4.37.06-8.73.01-13.1.01ZM513.42,426.78c0-10.85,0-21.7,0-32.55,0-2.52-1.63-4.58-3.91-5.03-2.69-.54-5.09.55-6.1,2.92-.38.88-.57,1.91-.57,2.87-.03,15.85-.02,31.7-.02,47.55,0,5.57-.08,11.14.03,16.7.08,3.93,3.77,6.4,7.66,4.76,2.06-.87,2.93-2.62,2.93-4.88-.03-10.78-.01-21.56-.01-32.34Z"/>
  <path class="cls-1" d="M280.67,470.83v-44.43c.35.36.58.59.8.84,10.11,11.71,20.22,23.41,30.32,35.13,1.76,2.05,3.96,2.52,6.44,1.8,2.46-.72,3.55-2.66,3.84-5,.22-1.79-.79-3.32-1.89-4.6-9.47-11.09-18.99-22.13-28.5-33.18-3.24-3.77-6.41-7.59-9.76-11.26-1.17-1.28-1.57-2.49-1.41-4.2.32-3.48.88-6.89,2.29-10.11,2.75-6.31,7.82-9.8,14.25-11.59,4.41-1.22,8.91-1.6,13.48-1.52,4.58.07,9.16-.04,13.74-.04,12.64,0,25.28,0,37.92,0,.38,0,.76,0,1.19,0v44.38c-.38-.39-.67-.66-.93-.95-10.55-11.7-21.09-23.4-31.66-35.08-1.56-1.72-3.5-2.3-5.79-1.59-2.34.73-3.59,2.31-3.81,4.71-.14,1.45.55,2.58,1.44,3.65,5.36,6.48,10.7,12.97,16.06,19.45,8.06,9.77,16.12,19.53,24.17,29.31.27.33.55.8.54,1.2-.05,3.67-.49,7.27-1.82,10.73-2.09,5.44-6.13,8.71-11.56,10.45-4.12,1.32-8.35,1.92-12.68,1.91-18.43,0-36.85,0-55.28,0h-1.4Z"/>
  <path class="cls-1" d="M373.78,426.32c2.58,2.99,4.99,5.77,7.39,8.56,7.91,9.16,15.79,18.33,23.73,27.46,1.74,2,4.02,2.57,6.57,1.85,2.47-.7,3.53-2.62,3.92-4.95.23-1.37-.41-2.6-1.26-3.62-2.79-3.35-5.64-6.66-8.48-9.97-10.27-11.95-20.52-23.9-30.85-35.79-1-1.15-1.3-2.19-1.2-3.64.27-3.71.89-7.31,2.44-10.71,2.8-6.14,7.82-9.53,14.13-11.28,4.41-1.22,8.91-1.59,13.48-1.52,4.58.07,9.16-.04,13.74-.04,12.64,0,25.28,0,37.92,0,.35,0,.7,0,1.14,0v44.39c-.47-.51-.84-.89-1.2-1.29-10.43-11.57-20.9-23.1-31.26-34.73-2.04-2.29-5.56-2.42-7.88-.4-1.97,1.71-2.16,4.89-.3,7.21,1.95,2.44,3.96,4.82,5.95,7.23,11.4,13.82,22.8,27.63,34.19,41.46.27.33.55.8.55,1.19-.04,3.67-.49,7.27-1.81,10.73-2.07,5.41-6.08,8.68-11.45,10.43-3.87,1.26-7.86,1.93-11.93,1.93-18.75.02-37.49.01-56.24.01h-1.3v-44.51Z"/>
  <path class="cls-1" d="M176.84,444.73v26.06h-82.21v-88.06h34.91v1.4c0,24.61-.03,49.22.02,73.82.01,5.84,5.14,7.48,8.7,6,1.48-.62,2.5-1.72,2.86-3.34,1.12-5.15,4.21-8.8,8.71-11.37,4.16-2.38,8.68-3.72,13.42-4.1,4.34-.35,8.72-.34,13.08-.48.14,0,.27.03.51.06Z"/>
</svg>