<?xml version="1.0" encoding="UTF-8"?>
<svg id="Layer_1" data-name="Layer 1" xmlns="http://www.w3.org/2000/svg" viewBox="0 0 97.72 695.01">
  <defs>
    <style>
      .cls-1, .cls-2, .cls-3 {
        stroke-width: 0px;
      }

      .cls-2 {
        fill: #800120;
      }

      .cls-3 {
        fill: #fff;
      }
    </style>
  </defs>
  <g>
    <path class="cls-1" d="M92.79.01v35.97h-1.38c-24.76,0-49.51,0-74.27,0-2.98,0-4.82,1.09-5.72,3.8-1.44,4.33,1.47,7.9,5.23,8.21.63.05,1.28.04,1.91.04,24.26,0,48.52,0,72.78,0h1.43v36.16h-1.37c-24.72,0-49.44,0-74.16,0-2.85,0-4.92,1.26-5.81,3.94-1.45,4.33,1.45,7.9,5.21,8.22.63.05,1.28.04,1.91.04,24.26,0,48.52,0,72.78,0h1.43v36.1H4.73v-1.18c0-34.98-.02-69.95.03-104.93,0-4.72,1-9.31,2.98-13.63C10.81,6.05,16.14,2.17,23.32.94,26.62.37,30,.06,33.35.05,52.79-.03,72.23.01,91.66.01h1.13Z"/>
    <path class="cls-1" d="M92.83,695.01H4.73c0-.38,0-.76,0-1.13,0-17.33-.05-34.65.03-51.98.02-5.63,1.15-11.08,3.78-16.12,4.99-9.58,14.11-14.16,24.68-13.5,6.54.4,11.53,3.35,14.82,9.07.07.11.15.22.29.41.16-.29.29-.49.39-.7,4.01-8.29,10.4-12,19.62-11.43,6.65.41,12.41,2.71,16.87,7.83,3.89,4.47,5.97,9.78,6.93,15.53.43,2.58.65,5.22.66,7.83.06,17.61.03,35.22.03,52.83v1.35ZM69.02,649.43c-4.07,0-8.15,0-12.22,0-3.03,0-5.24,2.28-5.24,5.36,0,3.08,2.19,5.39,5.2,5.4,8.08.02,16.16.02,24.23-.01.76,0,1.57-.13,2.27-.42,2.44-1,3.64-3.45,3.14-6.2-.41-2.27-2.65-4.1-5.16-4.12-4.07-.03-8.15,0-12.22,0ZM28.21,649.43s0,0,0,.01c-4,0-8.01-.03-12.01.01-2.24.02-4.13,1.44-4.86,3.5-.75,2.13-.1,4.59,1.6,6.01,1.12.93,2.42,1.24,3.86,1.24,7.72-.02,15.45-.04,23.17.01,2.4.02,5.27-2.29,5.25-5.44-.02-2.9-2.67-5.4-5.22-5.36-3.93.06-7.87.02-11.8.02Z"/>
    <path class="cls-1" d="M92.83,186.96c0,4.15.05,8.31,0,12.46-.14,10.76-4.7,19.12-13.75,24.93-5.76,3.7-12.18,5.68-18.87,6.8-8.81,1.47-17.64,1.61-26.46.04-7.47-1.33-14.31-4.04-19.85-9.45-5.38-5.26-8.23-11.76-8.91-19.17-.35-3.77-.23-7.58-.25-11.38-.04-5.82-.18-11.65.03-17.46.29-7.85,2.6-15.01,8.16-20.82,4.57-4.78,10.29-7.56,16.58-9.29,6.21-1.7,12.55-2.22,18.96-2.07,7.12.17,14.13,1.04,20.91,3.36,6.36,2.18,12.18,5.25,16.62,10.47,4.51,5.31,6.74,11.51,6.83,18.47.06,4.37.01,8.73.01,13.1ZM48.78,181.6c-10.85,0-21.7,0-32.55,0-2.52,0-4.58,1.63-5.03,3.91-.54,2.69.55,5.09,2.92,6.1.88.38,1.91.57,2.87.57,15.85.03,31.7.02,47.55.02,5.57,0,11.14.08,16.7-.03,3.93-.08,6.4-3.77,4.76-7.66-.87-2.06-2.62-2.93-4.88-2.93-10.78.03-21.56.01-32.34.01Z"/>
    <path class="cls-1" d="M92.83,414.35h-44.43c.36-.35.59-.58.84-.8,11.71-10.11,23.41-20.22,35.13-30.32,2.05-1.76,2.52-3.96,1.8-6.44-.72-2.46-2.66-3.55-5-3.84-1.79-.22-3.32.79-4.6,1.89-11.09,9.47-22.13,18.99-33.18,28.5-3.77,3.24-7.59,6.41-11.26,9.76-1.28,1.17-2.49,1.57-4.2,1.41-3.48-.32-6.89-.88-10.11-2.29-6.31-2.75-9.8-7.82-11.59-14.25-1.22-4.41-1.6-8.91-1.52-13.48.07-4.58-.04-9.16-.04-13.74,0-12.64,0-25.28,0-37.92,0-.38,0-.76,0-1.19h44.38c-.39.38-.66.67-.95.93-11.7,10.55-23.4,21.09-35.08,31.66-1.72,1.56-2.3,3.5-1.59,5.79.73,2.34,2.31,3.59,4.71,3.81,1.45.14,2.58-.55,3.65-1.44,6.48-5.36,12.97-10.7,19.45-16.06,9.77-8.06,19.53-16.12,29.31-24.17.33-.27.8-.55,1.2-.54,3.67.05,7.27.49,10.73,1.82,5.44,2.09,8.71,6.13,10.45,11.56,1.32,4.12,1.92,8.35,1.91,12.68,0,18.43,0,36.85,0,55.28v1.4Z"/>
    <path class="cls-1" d="M48.32,321.24c2.99-2.58,5.77-4.99,8.56-7.39,9.16-7.91,18.33-15.79,27.46-23.73,2-1.74,2.57-4.02,1.85-6.57-.7-2.47-2.62-3.53-4.95-3.92-1.37-.23-2.6.41-3.62,1.26-3.35,2.79-6.66,5.64-9.97,8.48-11.95,10.27-23.9,20.52-35.79,30.85-1.15,1-2.19,1.3-3.64,1.2-3.71-.27-7.31-.89-10.71-2.44-6.14-2.8-9.53-7.82-11.28-14.13-1.22-4.41-1.59-8.91-1.52-13.48.07-4.58-.04-9.16-.04-13.74,0-12.64,0-25.28,0-37.92,0-.35,0-.7,0-1.14h44.39c-.51.47-.89.84-1.29,1.2-11.57,10.43-23.1,20.9-34.73,31.26-2.29,2.04-2.42,5.56-.4,7.88,1.71,1.97,4.89,2.16,7.21.3,2.44-1.95,4.82-3.96,7.23-5.95,13.82-11.4,27.63-22.8,41.46-34.19.33-.27.8-.55,1.19-.55,3.67.04,7.27.49,10.73,1.81,5.41,2.07,8.68,6.08,10.43,11.45,1.26,3.87,1.93,7.86,1.93,11.93.02,18.75.01,37.49.01,56.24v1.3h-44.51Z"/>
    <path class="cls-1" d="M66.73,518.18h26.06v82.21H4.73v-34.91h1.4c24.61,0,49.22.03,73.82-.02,5.84-.01,7.48-5.14,6-8.7-.62-1.48-1.72-2.5-3.34-2.86-5.15-1.12-8.8-4.21-11.37-8.71-2.38-4.16-3.72-8.68-4.1-13.42-.35-4.34-.34-8.72-.48-13.08,0-.14.03-.27.06-.51Z"/>
    <path class="cls-3" d="M69.02,649.43c4.07,0,8.15-.02,12.22,0,2.51.02,4.74,1.84,5.16,4.12.5,2.75-.7,5.2-3.14,6.2-.7.29-1.51.42-2.27.42-8.08.03-16.16.03-24.23.01-3.01,0-5.21-2.32-5.2-5.4,0-3.08,2.22-5.35,5.24-5.36,4.07-.01,8.15,0,12.22,0Z"/>
    <path class="cls-3" d="M28.21,649.43c3.93,0,7.87.04,11.8-.02,2.55-.04,5.2,2.45,5.22,5.36.02,3.16-2.85,5.46-5.25,5.44-7.72-.05-15.45-.03-23.17-.01-1.44,0-2.74-.31-3.86-1.24-1.7-1.42-2.35-3.88-1.6-6.01.73-2.07,2.61-3.48,4.86-3.5,4-.04,8.01-.01,12.01-.01,0,0,0,0,0-.01Z"/>
    <path class="cls-3" d="M48.89,460.92c10.81,0,21.63,0,32.44,0,2.28,0,4,1.17,4.81,3.2.78,1.96.32,4.36-1.2,5.82-1.18,1.13-2.61,1.6-4.26,1.6-17.59-.02-35.17-.01-52.76-.01-3.9,0-7.8.02-11.7-.01-2.33-.02-4.57-1.86-5.03-4.04-.55-2.57.47-5,2.68-6.03.8-.37,1.78-.5,2.67-.51,10.78-.03,21.56-.02,32.34-.02Z"/>
    <path class="cls-3" d="M48.78,181.6c10.78,0,21.56.01,32.34-.01,2.26,0,4.01.87,4.88,2.93,1.65,3.89-.83,7.58-4.76,7.66-5.56.11-11.13.03-16.7.03-15.85,0-31.7,0-47.55-.02-.96,0-1.99-.2-2.87-.57-2.37-1.01-3.46-3.41-2.92-6.1.46-2.28,2.52-3.91,5.03-3.91,10.85-.01,21.7,0,32.55,0Z"/>
  </g>
  <g>
    <path class="cls-2" d="M52.71,474.76c6.72-5.46,18.76-6.7,27.5,1.1,9.12,8.14,9.78,22.1,1.48,31-8.34,8.95-21.16,8.65-28.91,2.63,4.13-5.05,6.3-10.85,6.28-17.36-.02-6.51-2.18-12.32-6.35-17.36Z"/>
    <path class="cls-2" d="M11.6,485.19c6.09,2.43,12.28,2.72,18.53.68,6.24-2.04,11.09-5.9,14.62-11.43,7.29,4.78,12.04,16.01,7.18,26.67-5.11,11.18-18.44,15.92-29.41,10.43-11.23-5.63-13.99-18.04-10.91-26.35Z"/>
    <path class="cls-2" d="M88.69,477.83c-3.57-5.54-8.45-9.37-14.7-11.38-6.26-2.01-12.45-1.67-18.54.77-2.83-7.22-1.15-19.21,9.25-25.54,10.46-6.37,24-2.88,30.11,7.75,5.99,10.42,2.13,22.69-6.12,28.4Z"/>
    <path class="cls-2" d="M69.7,433.92c-6.37,1.68-11.52,5.14-15.36,10.46-3.84,5.33-5.44,11.32-4.99,17.87-7.74.46-18.63-4.84-21.44-16.68-2.83-11.92,4.67-23.72,16.66-26.25,11.76-2.48,22.24,4.98,25.13,14.59Z"/>
    <path class="cls-2" d="M22.04,438.59c-.45,6.57,1.17,12.56,4.98,17.91,3.82,5.35,8.98,8.78,15.32,10.46-2.05,7.48-10.56,16.09-22.68,14.95-12.19-1.15-20.96-12.04-19.51-24.21,1.43-11.94,11.86-19.46,21.89-19.11Z"/>
  </g>
</svg>